{"Protocol":0,"Id":"9c5e2f69a31134a97ce84e241f66a477","Path":"/Passport/Supun/Jatadhara (2025) Telugu WEB-DL-[CineSubz.co]-1080p.mp4","EncoderPath":null,"EncoderProtocol":null,"Type":0,"Container":"mov,mp4,m4a,3gp,3g2,mj2","Size":3188955059,"Name":"Jatadhara (2025) Telugu WEB-DL-[CineSubz.co]-1080p","IsRemote":false,"ETag":"835318dc1361146021fe0c3562a5679b","RunTimeTicks":76879040000,"ReadAtNativeFramerate":false,"IgnoreDts":false,"IgnoreIndex":false,"GenPtsInput":false,"SupportsTranscoding":true,"SupportsDirectStream":true,"SupportsDirectPlay":true,"IsInfiniteStream":false,"UseMostCompatibleTranscodingProfile":false,"RequiresOpening":false,"OpenToken":null,"RequiresClosing":false,"LiveStreamId":null,"BufferMs":null,"RequiresLooping":false,"SupportsProbing":true,"VideoType":0,"IsoType":null,"Video3DFormat":null,"MediaStreams":[{"Codec":"h264","CodecTag":"avc1","Language":"eng","ColorRange":null,"ColorSpace":null,"ColorTransfer":null,"ColorPrimaries":null,"DvVersionMajor":null,"DvVersionMinor":null,"DvProfile":null,"DvLevel":null,"RpuPresentFlag":null,"ElPresentFlag":null,"BlPresentFlag":null,"DvBlSignalCompatibilityId":null,"Rotation":null,"Comment":null,"TimeBase":"1/12800","CodecTimeBase":null,"Title":null,"Hdr10PlusPresentFlag":null,"VideoRange":1,"VideoRangeType":1,"VideoDoViTitle":null,"AudioSpatialFormat":0,"LocalizedUndefined":null,"LocalizedDefault":null,"LocalizedForced":null,"LocalizedExternal":null,"LocalizedHearingImpaired":null,"DisplayTitle":"1080p H264 SDR","NalLengthSize":"4","IsInterlaced":false,"IsAVC":true,"ChannelLayout":null,"BitRate":2993841,"BitDepth":8,"RefFrames":1,"PacketLength":null,"Channels":null,"SampleRate":null,"IsDefault":true,"IsForced":false,"IsHearingImpaired":false,"Height":1080,"Width":1920,"AverageFrameRate":25,"RealFrameRate":25,"ReferenceFrameRate":25,"Profile":"High","Type":1,"AspectRatio":"2.40:1","Index":0,"Score":null,"IsExternal":false,"DeliveryMethod":null,"DeliveryUrl":null,"IsExternalUrl":null,"IsTextSubtitleStream":false,"SupportsExternalStream":false,"Path":null,"PixelFormat":"yuv420p","Level":40,"IsAnamorphic":true},{"Codec":"aac","CodecTag":"mp4a","Language":"eng","ColorRange":null,"ColorSpace":null,"ColorTransfer":null,"ColorPrimaries":null,"DvVersionMajor":null,"DvVersionMinor":null,"DvProfile":null,"DvLevel":null,"RpuPresentFlag":null,"ElPresentFlag":null,"BlPresentFlag":null,"DvBlSignalCompatibilityId":null,"Rotation":null,"Comment":null,"TimeBase":"1/48000","CodecTimeBase":null,"Title":null,"Hdr10PlusPresentFlag":null,"VideoRange":0,"VideoRangeType":0,"VideoDoViTitle":null,"AudioSpatialFormat":0,"LocalizedUndefined":null,"LocalizedDefault":"Default","LocalizedForced":null,"LocalizedExternal":"External","LocalizedHearingImpaired":null,"DisplayTitle":"English - AAC - 5.1 - Default","NalLengthSize":null,"IsInterlaced":false,"IsAVC":false,"ChannelLayout":"5.1","BitRate":320000,"BitDepth":null,"RefFrames":null,"PacketLength":null,"Channels":6,"SampleRate":48000,"IsDefault":true,"IsForced":false,"IsHearingImpaired":false,"Height":null,"Width":null,"AverageFrameRate":null,"RealFrameRate":null,"ReferenceFrameRate":null,"Profile":"LC","Type":0,"AspectRatio":null,"Index":1,"Score":null,"IsExternal":false,"DeliveryMethod":null,"DeliveryUrl":null,"IsExternalUrl":null,"IsTextSubtitleStream":false,"SupportsExternalStream":false,"Path":null,"PixelFormat":null,"Level":0,"IsAnamorphic":null}],"MediaAttachments":[],"Formats":[],"Bitrate":3318412,"FallbackMaxStreamingBitrate":null,"Timestamp":null,"RequiredHttpHeaders":{},"TranscodingUrl":null,"TranscodingSubProtocol":0,"TranscodingContainer":null,"AnalyzeDurationMs":null,"DefaultAudioStreamIndex":null,"DefaultSubtitleStreamIndex":null,"HasSegments":false}

/usr/lib/jellyfin-ffmpeg/ffmpeg -analyzeduration 200M -probesize 1G -fflags +genpts -f mov,mp4,m4a,3gp,3g2,mj2  -i file:"/Passport/Supun/Jatadhara (2025) Telugu WEB-DL-[CineSubz.co]-1080p.mp4" -map_metadata -1 -map_chapters -1 -threads 0 -map 0:0 -map 0:1 -map -0:s -codec:v:0 copy -bsf:v h264_mp4toannexb -start_at_zero -codec:a:0 copy -copyts -avoid_negative_ts disabled -max_muxing_queue_size 2048 -f hls -max_delay 5000000 -hls_time 6 -hls_segment_type fmp4 -hls_fmp4_init_filename "de9627e3955cb2cab8b6950dda23497b-1.mp4" -start_number 0 -hls_segment_filename "/cache/transcodes/de9627e3955cb2cab8b6950dda23497b%d.mp4" -hls_playlist_type vod -hls_list_size 0 -hls_segment_options movflags=+frag_discont -y "/cache/transcodes/de9627e3955cb2cab8b6950dda23497b.m3u8"


ffmpeg version 7.1.3-Jellyfin Copyright (c) 2000-2025 the FFmpeg developers
  built with gcc 14 (Debian 14.2.0-19)
  configuration: --prefix=/usr/lib/jellyfin-ffmpeg --target-os=linux --extra-version=Jellyfin --disable-doc --disable-ffplay --disable-static --disable-libxcb --disable-sdl2 --disable-xlib --enable-lto=auto --enable-gpl --enable-version3 --enable-shared --enable-gmp --enable-gnutls --enable-chromaprint --enable-opencl --enable-libdrm --enable-libxml2 --enable-libass --enable-libfreetype --enable-libfribidi --enable-libfontconfig --enable-libharfbuzz --enable-libbluray --enable-libmp3lame --enable-libopus --enable-libtheora --enable-libvorbis --enable-libopenmpt --enable-libdav1d --enable-libsvtav1 --enable-libwebp --enable-libvpx --enable-libx264 --enable-libx265 --enable-libzvbi --enable-libzimg --enable-libfdk-aac --arch=arm64 --cross-prefix=/usr/bin/aarch64-linux-gnu- --toolchain=hardened --enable-cross-compile --enable-rkmpp --enable-rkrga --enable-ffnvcodec --enable-cuda --enable-cuda-llvm --enable-cuvid --enable-nvdec --enable-nvenc
  libavutil      59. 39.100 / 59. 39.100
  libavcodec     61. 19.101 / 61. 19.101
  libavformat    61.  7.100 / 61.  7.100
  libavdevice    61.  3.100 / 61.  3.100
  libavfilter    10.  4.100 / 10.  4.100
  libswscale      8.  3.100 /  8.  3.100
  libswresample   5.  3.100 /  5.  3.100
  libpostproc    58.  3.100 / 58.  3.100
Input #0, mov,mp4,m4a,3gp,3g2,mj2, from 'file:/Passport/Supun/Jatadhara (2025) Telugu WEB-DL-[CineSubz.co]-1080p.mp4':
  Metadata:
    major_brand     : isom
    minor_version   : 512
    compatible_brands: isomiso2avc1mp41
    encoder         : Lavf56.25.101
  Duration: 02:08:07.90, start: 0.000000, bitrate: 3318 kb/s
  Stream #0:0[0x1](eng): Video: h264 (High) (avc1 / 0x31637661), yuv420p(progressive), 1920x1080 [SAR 27:20 DAR 12:5], 2993 kb/s, 25 fps, 25 tbr, 12800 tbn (default)
      Metadata:
        handler_name    : VideoHandler
        vendor_id       : [0][0][0][0]
  Stream #0:1[0x2](eng): Audio: aac (LC) (mp4a / 0x6134706D), 48000 Hz, 5.1, fltp, 320 kb/s (default)
      Metadata:
        handler_name    : SoundHandler
        vendor_id       : [0][0][0][0]
Stream mapping:
  Stream #0:0 -> #0:0 (copy)
  Stream #0:1 -> #0:1 (copy)
[hls @ 0x7fff4b4c5500] Opening '/cache/transcodes/de9627e3955cb2cab8b6950dda23497b-1.mp4' for writing
Output #0, hls, to '/cache/transcodes/de9627e3955cb2cab8b6950dda23497b.m3u8':
  Metadata:
    encoder         : Lavf61.7.100
  Stream #0:0: Video: h264 (High) (avc1 / 0x31637661), yuv420p(progressive), 1920x1080 [SAR 27:20 DAR 12:5], q=2-31, 2993 kb/s, 25 fps, 25 tbr, 12800 tbn (default)
  Stream #0:1: Audio: aac (LC) (mp4a / 0x6134706D), 48000 Hz, 5.1, fltp, 320 kb/s (default)
Press [q] to stop, [?] for help
[hls @ 0x7fff4b4c5500] Opening '/cache/transcodes/de9627e3955cb2cab8b6950dda23497b0.mp4' for writing
[hls @ 0x7fff4b4c5500] Opening '/cache/transcodes/de9627e3955cb2cab8b6950dda23497b1.mp4' for writing
[hls @ 0x7fff4b4c5500] Opening '/cache/transcodes/de9627e3955cb2cab8b6950dda23497b2.mp4' for writing
[hls @ 0x7fff4b4c5500] Opening '/cache/transcodes/de9627e3955cb2cab8b6950dda23497b3.mp4' for writing
[hls @ 0x7fff4b4c5500] Opening '/cache/transcodes/de9627e3955cb2cab8b6950dda23497b4.mp4' for writing
[hls @ 0x7fff4b4c5500] Opening '/cache/transcodes/de9627e3955cb2cab8b6950dda23497b5.mp4' for writing
[hls @ 0x7fff4b4c5500] Opening '/cache/transcodes/de9627e3955cb2cab8b6950dda23497b6.mp4' for writing
[hls @ 0x7fff4b4c5500] Opening '/cache/transcodes/de9627e3955cb2cab8b6950dda23497b7.mp4' for writing
[hls @ 0x7fff4b4c5500] Opening '/cache/transcodes/de9627e3955cb2cab8b6950dda23497b8.mp4' for writing
[hls @ 0x7fff4b4c5500] Opening '/cache/transcodes/de9627e3955cb2cab8b6950dda23497b9.mp4' for writing
[hls @ 0x7fff4b4c5500] Opening '/cache/transcodes/de9627e3955cb2cab8b6950dda23497b10.mp4' for writing
frame= 1666 fps=0.0 q=-1.0 size=N/A time=00:00:00.00 bitrate=N/A speed=   0x    
[hls @ 0x7fff4b4c5500] Opening '/cache/transcodes/de9627e3955cb2cab8b6950dda23497b11.mp4' for writing
[hls @ 0x7fff4b4c5500] Opening '/cache/transcodes/de9627e3955cb2cab8b6950dda23497b12.mp4' for writing
[hls @ 0x7fff4b4c5500] Opening '/cache/transcodes/de9627e3955cb2cab8b6950dda23497b13.mp4' for writing
[hls @ 0x7fff4b4c5500] Opening '/cache/transcodes/de9627e3955cb2cab8b6950dda23497b14.mp4' for writing
[hls @ 0x7fff4b4c5500] Opening '/cache/transcodes/de9627e3955cb2cab8b6950dda23497b15.mp4' for writing
[hls @ 0x7fff4b4c5500] Opening '/cache/transcodes/de9627e3955cb2cab8b6950dda23497b16.mp4' for writing
[hls @ 0x7fff4b4c5500] Opening '/cache/transcodes/de9627e3955cb2cab8b6950dda23497b17.mp4' for writing
[hls @ 0x7fff4b4c5500] Opening '/cache/transcodes/de9627e3955cb2cab8b6950dda23497b18.mp4' for writing
[hls @ 0x7fff4b4c5500] Opening '/cache/transcodes/de9627e3955cb2cab8b6950dda23497b19.mp4' for writing
[hls @ 0x7fff4b4c5500] Opening '/cache/transcodes/de9627e3955cb2cab8b6950dda23497b20.mp4' for writing
[hls @ 0x7fff4b4c5500] Opening '/cache/transcodes/de9627e3955cb2cab8b6950dda23497b21.mp4' for writing
[hls @ 0x7fff4b4c5500] Opening '/cache/transcodes/de9627e3955cb2cab8b6950dda23497b22.mp4' for writing
[hls @ 0x7fff4b4c5500] Opening '/cache/transcodes/de9627e3955cb2cab8b6950dda23497b23.mp4' for writing
[hls @ 0x7fff4b4c5500] Opening '/cache/transcodes/de9627e3955cb2cab8b6950dda23497b24.mp4' for writing
[hls @ 0x7fff4b4c5500] Opening '/cache/transcodes/de9627e3955cb2cab8b6950dda23497b25.mp4' for writing
[hls @ 0x7fff4b4c5500] Opening '/cache/transcodes/de9627e3955cb2cab8b6950dda23497b26.mp4' for writing
[hls @ 0x7fff4b4c5500] Opening '/cache/transcodes/de9627e3955cb2cab8b6950dda23497b27.mp4' for writing
[hls @ 0x7fff4b4c5500] Opening '/cache/transcodes/de9627e3955cb2cab8b6950dda23497b28.mp4' for writing
[hls @ 0x7fff4b4c5500] Opening '/cache/transcodes/de9627e3955cb2cab8b6950dda23497b29.mp4' for writing
[hls @ 0x7fff4b4c5500] Opening '/cache/transcodes/de9627e3955cb2cab8b6950dda23497b30.mp4' for writing
[hls @ 0x7fff4b4c5500] Opening '/cache/transcodes/de9627e3955cb2cab8b6950dda23497b31.mp4' for writing
[hls @ 0x7fff4b4c5500] Opening '/cache/transcodes/de9627e3955cb2cab8b6950dda23497b32.mp4' for writing
[hls @ 0x7fff4b4c5500] Opening '/cache/transcodes/de9627e3955cb2cab8b6950dda23497b33.mp4' for writing
[hls @ 0x7fff4b4c5500] Opening '/cache/transcodes/de9627e3955cb2cab8b6950dda23497b34.mp4' for writing
[hls @ 0x7fff4b4c5500] Opening '/cache/transcodes/de9627e3955cb2cab8b6950dda23497b35.mp4' for writing
[hls @ 0x7fff4b4c5500] Opening '/cache/transcodes/de9627e3955cb2cab8b6950dda23497b36.mp4' for writing
[hls @ 0x7fff4b4c5500] Opening '/cache/transcodes/de9627e3955cb2cab8b6950dda23497b37.mp4' for writing
[hls @ 0x7fff4b4c5500] Opening '/cache/transcodes/de9627e3955cb2cab8b6950dda23497b38.mp4' for writing
[hls @ 0x7fff4b4c5500] Opening '/cache/transcodes/de9627e3955cb2cab8b6950dda23497b39.mp4' for writing
frame= 6126 fps=6125 q=-1.0 size=N/A time=00:02:58.40 bitrate=N/A speed= 178x    
[hls @ 0x7fff4b4c5500] Opening '/cache/transcodes/de9627e3955cb2cab8b6950dda23497b40.mp4' for writing
[hls @ 0x7fff4b4c5500] Opening '/cache/transcodes/de9627e3955cb2cab8b6950dda23497b41.mp4' for writing
[hls @ 0x7fff4b4c5500] Opening '/cache/transcodes/de9627e3955cb2cab8b6950dda23497b42.mp4' for writing
[hls @ 0x7fff4b4c5500] Opening '/cache/transcodes/de9627e3955cb2cab8b6950dda23497b43.mp4' for writing
[hls @ 0x7fff4b4c5500] Opening '/cache/transcodes/de9627e3955cb2cab8b6950dda23497b44.mp4' for writing
[hls @ 0x7fff4b4c5500] Opening '/cache/transcodes/de9627e3955cb2cab8b6950dda23497b45.mp4' for writing
[hls @ 0x7fff4b4c5500] Opening '/cache/transcodes/de9627e3955cb2cab8b6950dda23497b46.mp4' for writing
[hls @ 0x7fff4b4c5500] Opening '/cache/transcodes/de9627e3955cb2cab8b6950dda23497b47.mp4' for writing
[hls @ 0x7fff4b4c5500] Opening '/cache/transcodes/de9627e3955cb2cab8b6950dda23497b48.mp4' for writing
[hls @ 0x7fff4b4c5500] Opening '/cache/transcodes/de9627e3955cb2cab8b6950dda23497b49.mp4' for writing
[hls @ 0x7fff4b4c5500] Opening '/cache/transcodes/de9627e3955cb2cab8b6950dda23497b50.mp4' for writing
[hls @ 0x7fff4b4c5500] Opening '/cache/transcodes/de9627e3955cb2cab8b6950dda23497b51.mp4' for writing
[hls @ 0x7fff4b4c5500] Opening '/cache/transcodes/de9627e3955cb2cab8b6950dda23497b52.mp4' for writing
[hls @ 0x7fff4b4c5500] Opening '/cache/transcodes/de9627e3955cb2cab8b6950dda23497b53.mp4' for writing
[hls @ 0x7fff4b4c5500] Opening '/cache/transcodes/de9627e3955cb2cab8b6950dda23497b54.mp4' for writing
[hls @ 0x7fff4b4c5500] Opening '/cache/transcodes/de9627e3955cb2cab8b6950dda23497b55.mp4' for writing
[hls @ 0x7fff4b4c5500] Opening '/cache/transcodes/de9627e3955cb2cab8b6950dda23497b56.mp4' for writing
[hls @ 0x7fff4b4c5500] Opening '/cache/transcodes/de9627e3955cb2cab8b6950dda23497b57.mp4' for writing
[hls @ 0x7fff4b4c5500] Opening '/cache/transcodes/de9627e3955cb2cab8b6950dda23497b58.mp4' for writing
[hls @ 0x7fff4b4c5500] Opening '/cache/transcodes/de9627e3955cb2cab8b6950dda23497b59.mp4' for writing
[hls @ 0x7fff4b4c5500] Opening '/cache/transcodes/de9627e3955cb2cab8b6950dda23497b60.mp4' for writing
[hls @ 0x7fff4b4c5500] Opening '/cache/transcodes/de9627e3955cb2cab8b6950dda23497b61.mp4' for writing
frame= 9299 fps=6198 q=-1.0 size=N/A time=00:05:05.41 bitrate=N/A speed= 204x    
[hls @ 0x7fff4b4c5500] Opening '/cache/transcodes/de9627e3955cb2cab8b6950dda23497b62.mp4' for writing
[hls @ 0x7fff4b4c5500] Opening '/cache/transcodes/de9627e3955cb2cab8b6950dda23497b63.mp4' for writing
[hls @ 0x7fff4b4c5500] Opening '/cache/transcodes/de9627e3955cb2cab8b6950dda23497b64.mp4' for writing
[hls @ 0x7fff4b4c5500] Opening '/cache/transcodes/de9627e3955cb2cab8b6950dda23497b65.mp4' for writing
[hls @ 0x7fff4b4c5500] Opening '/cache/transcodes/de9627e3955cb2cab8b6950dda23497b66.mp4' for writing
[hls @ 0x7fff4b4c5500] Opening '/cache/transcodes/de9627e3955cb2cab8b6950dda23497b67.mp4' for writing
[hls @ 0x7fff4b4c5500] Opening '/cache/transcodes/de9627e3955cb2cab8b6950dda23497b68.mp4' for writing
[hls @ 0x7fff4b4c5500] Opening '/cache/transcodes/de9627e3955cb2cab8b6950dda23497b69.mp4' for writing
[hls @ 0x7fff4b4c5500] Opening '/cache/transcodes/de9627e3955cb2cab8b6950dda23497b70.mp4' for writing
[hls @ 0x7fff4b4c5500] Opening '/cache/transcodes/de9627e3955cb2cab8b6950dda23497b71.mp4' for writing
[hls @ 0x7fff4b4c5500] Opening '/cache/transcodes/de9627e3955cb2cab8b6950dda23497b72.mp4' for writing
[hls @ 0x7fff4b4c5500] Opening '/cache/transcodes/de9627e3955cb2cab8b6950dda23497b73.mp4' for writing
[hls @ 0x7fff4b4c5500] Opening '/cache/transcodes/de9627e3955cb2cab8b6950dda23497b74.mp4' for writing
[hls @ 0x7fff4b4c5500] Opening '/cache/transcodes/de9627e3955cb2cab8b6950dda23497b75.mp4' for writing
[hls @ 0x7fff4b4c5500] Opening '/cache/transcodes/de9627e3955cb2cab8b6950dda23497b76.mp4' for writing
[hls @ 0x7fff4b4c5500] Opening '/cache/transcodes/de9627e3955cb2cab8b6950dda23497b77.mp4' for writing
[hls @ 0x7fff4b4c5500] Opening '/cache/transcodes/de9627e3955cb2cab8b6950dda23497b78.mp4' for writing
[hls @ 0x7fff4b4c5500] Opening '/cache/transcodes/de9627e3955cb2cab8b6950dda23497b79.mp4' for writing
[hls @ 0x7fff4b4c5500] Opening '/cache/transcodes/de9627e3955cb2cab8b6950dda23497b80.mp4' for writing
[hls @ 0x7fff4b4c5500] Opening '/cache/transcodes/de9627e3955cb2cab8b6950dda23497b81.mp4' for writing
[hls @ 0x7fff4b4c5500] Opening '/cache/transcodes/de9627e3955cb2cab8b6950dda23497b82.mp4' for writing
[hls @ 0x7fff4b4c5500] Opening '/cache/transcodes/de9627e3955cb2cab8b6950dda23497b83.mp4' for writing
[hls @ 0x7fff4b4c5500] Opening '/cache/transcodes/de9627e3955cb2cab8b6950dda23497b84.mp4' for writing
[hls @ 0x7fff4b4c5500] Opening '/cache/transcodes/de9627e3955cb2cab8b6950dda23497b85.mp4' for writing
[hls @ 0x7fff4b4c5500] Opening '/cache/transcodes/de9627e3955cb2cab8b6950dda23497b86.mp4' for writing
[hls @ 0x7fff4b4c5500] Opening '/cache/transcodes/de9627e3955cb2cab8b6950dda23497b87.mp4' for writing
[hls @ 0x7fff4b4c5500] Opening '/cache/transcodes/de9627e3955cb2cab8b6950dda23497b88.mp4' for writing
[hls @ 0x7fff4b4c5500] Opening '/cache/transcodes/de9627e3955cb2cab8b6950dda23497b89.mp4' for writing
[hls @ 0x7fff4b4c5500] Opening '/cache/transcodes/de9627e3955cb2cab8b6950dda23497b90.mp4' for writing
[hls @ 0x7fff4b4c5500] Opening '/cache/transcodes/de9627e3955cb2cab8b6950dda23497b91.mp4' for writing
[hls @ 0x7fff4b4c5500] Opening '/cache/transcodes/de9627e3955cb2cab8b6950dda23497b92.mp4' for writing
[hls @ 0x7fff4b4c5500] Opening '/cache/transcodes/de9627e3955cb2cab8b6950dda23497b93.mp4' for writing
[hls @ 0x7fff4b4c5500] Opening '/cache/transcodes/de9627e3955cb2cab8b6950dda23497b94.mp4' for writing
[hls @ 0x7fff4b4c5500] Opening '/cache/transcodes/de9627e3955cb2cab8b6950dda23497b95.mp4' for writing
[hls @ 0x7fff4b4c5500] Opening '/cache/transcodes/de9627e3955cb2cab8b6950dda23497b96.mp4' for writing
[hls @ 0x7fff4b4c5500] Opening '/cache/transcodes/de9627e3955cb2cab8b6950dda23497b97.mp4' for writing
frame=14778 fps=7387 q=-1.0 size=N/A time=00:08:44.44 bitrate=N/A speed= 262x    
[hls @ 0x7fff4b4c5500] Opening '/cache/transcodes/de9627e3955cb2cab8b6950dda23497b98.mp4' for writing
[hls @ 0x7fff4b4c5500] Opening '/cache/transcodes/de9627e3955cb2cab8b6950dda23497b99.mp4' for writing
[hls @ 0x7fff4b4c5500] Opening '/cache/transcodes/de9627e3955cb2cab8b6950dda23497b100.mp4' for writing
[hls @ 0x7fff4b4c5500] Opening '/cache/transcodes/de9627e3955cb2cab8b6950dda23497b101.mp4' for writing
[hls @ 0x7fff4b4c5500] Opening '/cache/transcodes/de9627e3955cb2cab8b6950dda23497b102.mp4' for writing
[hls @ 0x7fff4b4c5500] Opening '/cache/transcodes/de9627e3955cb2cab8b6950dda23497b103.mp4' for writing
[hls @ 0x7fff4b4c5500] Opening '/cache/transcodes/de9627e3955cb2cab8b6950dda23497b104.mp4' for writing
[hls @ 0x7fff4b4c5500] Opening '/cache/transcodes/de9627e3955cb2cab8b6950dda23497b105.mp4' for writing
[hls @ 0x7fff4b4c5500] Opening '/cache/transcodes/de9627e3955cb2cab8b6950dda23497b106.mp4' for writing
[hls @ 0x7fff4b4c5500] Opening '/cache/transcodes/de9627e3955cb2cab8b6950dda23497b107.mp4' for writing
[hls @ 0x7fff4b4c5500] Opening '/cache/transcodes/de9627e3955cb2cab8b6950dda23497b108.mp4' for writing
[hls @ 0x7fff4b4c5500] Opening '/cache/transcodes/de9627e3955cb2cab8b6950dda23497b109.mp4' for writing
[hls @ 0x7fff4b4c5500] Opening '/cache/transcodes/de9627e3955cb2cab8b6950dda23497b110.mp4' for writing
[hls @ 0x7fff4b4c5500] Opening '/cache/transcodes/de9627e3955cb2cab8b6950dda23497b111.mp4' for writing
[hls @ 0x7fff4b4c5500] Opening '/cache/transcodes/de9627e3955cb2cab8b6950dda23497b112.mp4' for writing
[hls @ 0x7fff4b4c5500] Opening '/cache/transcodes/de9627e3955cb2cab8b6950dda23497b113.mp4' for writing
[hls @ 0x7fff4b4c5500] Opening '/cache/transcodes/de9627e3955cb2cab8b6950dda23497b114.mp4' for writing
[hls @ 0x7fff4b4c5500] Opening '/cache/transcodes/de9627e3955cb2cab8b6950dda23497b115.mp4' for writing
[hls @ 0x7fff4b4c5500] Opening '/cache/transcodes/de9627e3955cb2cab8b6950dda23497b116.mp4' for writing
[hls @ 0x7fff4b4c5500] Opening '/cache/transcodes/de9627e3955cb2cab8b6950dda23497b117.mp4' for writing
[hls @ 0x7fff4b4c5500] Opening '/cache/transcodes/de9627e3955cb2cab8b6950dda23497b118.mp4' for writing
[hls @ 0x7fff4b4c5500] Opening '/cache/transcodes/de9627e3955cb2cab8b6950dda23497b119.mp4' for writing
[hls @ 0x7fff4b4c5500] Opening '/cache/transcodes/de9627e3955cb2cab8b6950dda23497b120.mp4' for writing
[hls @ 0x7fff4b4c5500] Opening '/cache/transcodes/de9627e3955cb2cab8b6950dda23497b121.mp4' for writing
[hls @ 0x7fff4b4c5500] Opening '/cache/transcodes/de9627e3955cb2cab8b6950dda23497b122.mp4' for writing
[hls @ 0x7fff4b4c5500] Opening '/cache/transcodes/de9627e3955cb2cab8b6950dda23497b123.mp4' for writing
[hls @ 0x7fff4b4c5500] Opening '/cache/transcodes/de9627e3955cb2cab8b6950dda23497b124.mp4' for writing
[hls @ 0x7fff4b4c5500] Opening '/cache/transcodes/de9627e3955cb2cab8b6950dda23497b125.mp4' for writing
[hls @ 0x7fff4b4c5500] Opening '/cache/transcodes/de9627e3955cb2cab8b6950dda23497b126.mp4' for writing
[hls @ 0x7fff4b4c5500] Opening '/cache/transcodes/de9627e3955cb2cab8b6950dda23497b127.mp4' for writing
[hls @ 0x7fff4b4c5500] Opening '/cache/transcodes/de9627e3955cb2cab8b6950dda23497b128.mp4' for writing
[hls @ 0x7fff4b4c5500] Opening '/cache/transcodes/de9627e3955cb2cab8b6950dda23497b129.mp4' for writing
[hls @ 0x7fff4b4c5500] Opening '/cache/transcodes/de9627e3955cb2cab8b6950dda23497b130.mp4' for writing
[hls @ 0x7fff4b4c5500] Opening '/cache/transcodes/de9627e3955cb2cab8b6950dda23497b131.mp4' for writing
frame=19899 fps=7957 q=-1.0 size=N/A time=00:12:09.41 bitrate=N/A speed= 292x    
[hls @ 0x7fff4b4c5500] Opening '/cache/transcodes/de9627e3955cb2cab8b6950dda23497b132.mp4' for writing
[hls @ 0x7fff4b4c5500] Opening '/cache/transcodes/de9627e3955cb2cab8b6950dda23497b133.mp4' for writing
[hls @ 0x7fff4b4c5500] Opening '/cache/transcodes/de9627e3955cb2cab8b6950dda23497b134.mp4' for writing
[hls @ 0x7fff4b4c5500] Opening '/cache/transcodes/de9627e3955cb2cab8b6950dda23497b135.mp4' for writing
[hls @ 0x7fff4b4c5500] Opening '/cache/transcodes/de9627e3955cb2cab8b6950dda23497b136.mp4' for writing
[hls @ 0x7fff4b4c5500] Opening '/cache/transcodes/de9627e3955cb2cab8b6950dda23497b137.mp4' for writing
[hls @ 0x7fff4b4c5500] Opening '/cache/transcodes/de9627e3955cb2cab8b6950dda23497b138.mp4' for writing
[hls @ 0x7fff4b4c5500] Opening '/cache/transcodes/de9627e3955cb2cab8b6950dda23497b139.mp4' for writing
[hls @ 0x7fff4b4c5500] Opening '/cache/transcodes/de9627e3955cb2cab8b6950dda23497b140.mp4' for writing
[hls @ 0x7fff4b4c5500] Opening '/cache/transcodes/de9627e3955cb2cab8b6950dda23497b141.mp4' for writing
[hls @ 0x7fff4b4c5500] Opening '/cache/transcodes/de9627e3955cb2cab8b6950dda23497b142.mp4' for writing
[hls @ 0x7fff4b4c5500] Opening '/cache/transcodes/de9627e3955cb2cab8b6950dda23497b143.mp4' for writing
[hls @ 0x7fff4b4c5500] Opening '/cache/transcodes/de9627e3955cb2cab8b6950dda23497b144.mp4' for writing
[hls @ 0x7fff4b4c5500] Opening '/cache/transcodes/de9627e3955cb2cab8b6950dda23497b145.mp4' for writing
[hls @ 0x7fff4b4c5500] Opening '/cache/transcodes/de9627e3955cb2cab8b6950dda23497b146.mp4' for writing
[hls @ 0x7fff4b4c5500] Opening '/cache/transcodes/de9627e3955cb2cab8b6950dda23497b147.mp4' for writing
[hls @ 0x7fff4b4c5500] Opening '/cache/transcodes/de9627e3955cb2cab8b6950dda23497b148.mp4' for writing
[hls @ 0x7fff4b4c5500] Opening '/cache/transcodes/de9627e3955cb2cab8b6950dda23497b149.mp4' for writing
[hls @ 0x7fff4b4c5500] Opening '/cache/transcodes/de9627e3955cb2cab8b6950dda23497b150.mp4' for writing
[hls @ 0x7fff4b4c5500] Opening '/cache/transcodes/de9627e3955cb2cab8b6950dda23497b151.mp4' for writing
[hls @ 0x7fff4b4c5500] Opening '/cache/transcodes/de9627e3955cb2cab8b6950dda23497b152.mp4' for writing
[hls @ 0x7fff4b4c5500] Opening '/cache/transcodes/de9627e3955cb2cab8b6950dda23497b153.mp4' for writing
[hls @ 0x7fff4b4c5500] Opening '/cache/transcodes/de9627e3955cb2cab8b6950dda23497b154.mp4' for writing
[hls @ 0x7fff4b4c5500] Opening '/cache/transcodes/de9627e3955cb2cab8b6950dda23497b155.mp4' for writing
[hls @ 0x7fff4b4c5500] Opening '/cache/transcodes/de9627e3955cb2cab8b6950dda23497b156.mp4' for writing
[hls @ 0x7fff4b4c5500] Opening '/cache/transcodes/de9627e3955cb2cab8b6950dda23497b157.mp4' for writing
[hls @ 0x7fff4b4c5500] Opening '/cache/transcodes/de9627e3955cb2cab8b6950dda23497b158.mp4' for writing
[hls @ 0x7fff4b4c5500] Opening '/cache/transcodes/de9627e3955cb2cab8b6950dda23497b159.mp4' for writing
[hls @ 0x7fff4b4c5500] Opening '/cache/transcodes/de9627e3955cb2cab8b6950dda23497b160.mp4' for writing
[hls @ 0x7fff4b4c5500] Opening '/cache/transcodes/de9627e3955cb2cab8b6950dda23497b161.mp4' for writing
[hls @ 0x7fff4b4c5500] Opening '/cache/transcodes/de9627e3955cb2cab8b6950dda23497b162.mp4' for writing
[hls @ 0x7fff4b4c5500] Opening '/cache/transcodes/de9627e3955cb2cab8b6950dda23497b163.mp4' for writing
[hls @ 0x7fff4b4c5500] Opening '/cache/transcodes/de9627e3955cb2cab8b6950dda23497b164.mp4' for writing
[hls @ 0x7fff4b4c5500] Opening '/cache/transcodes/de9627e3955cb2cab8b6950dda23497b165.mp4' for writing
[hls @ 0x7fff4b4c5500] Opening '/cache/transcodes/de9627e3955cb2cab8b6950dda23497b166.mp4' for writing
[hls @ 0x7fff4b4c5500] Opening '/cache/transcodes/de9627e3955cb2cab8b6950dda23497b167.mp4' for writing
[hls @ 0x7fff4b4c5500] Opening '/cache/transcodes/de9627e3955cb2cab8b6950dda23497b168.mp4' for writing
[hls @ 0x7fff4b4c5500] Opening '/cache/transcodes/de9627e3955cb2cab8b6950dda23497b169.mp4' for writing
[hls @ 0x7fff4b4c5500] Opening '/cache/transcodes/de9627e3955cb2cab8b6950dda23497b170.mp4' for writing
[hls @ 0x7fff4b4c5500] Opening '/cache/transcodes/de9627e3955cb2cab8b6950dda23497b171.mp4' for writing
[hls @ 0x7fff4b4c5500] Opening '/cache/transcodes/de9627e3955cb2cab8b6950dda23497b172.mp4' for writing
[hls @ 0x7fff4b4c5500] Opening '/cache/transcodes/de9627e3955cb2cab8b6950dda23497b173.mp4' for writing
[hls @ 0x7fff4b4c5500] Opening '/cache/transcodes/de9627e3955cb2cab8b6950dda23497b174.mp4' for writing
[hls @ 0x7fff4b4c5500] Opening '/cache/transcodes/de9627e3955cb2cab8b6950dda23497b175.mp4' for writing
[hls @ 0x7fff4b4c5500] Opening '/cache/transcodes/de9627e3955cb2cab8b6950dda23497b176.mp4' for writing
[hls @ 0x7fff4b4c5500] Opening '/cache/transcodes/de9627e3955cb2cab8b6950dda23497b177.mp4' for writing
[hls @ 0x7fff4b4c5500] Opening '/cache/transcodes/de9627e3955cb2cab8b6950dda23497b178.mp4' for writing
[hls @ 0x7fff4b4c5500] Opening '/cache/transcodes/de9627e3955cb2cab8b6950dda23497b179.mp4' for writing
[hls @ 0x7fff4b4c5500] Opening '/cache/transcodes/de9627e3955cb2cab8b6950dda23497b180.mp4' for writing
[hls @ 0x7fff4b4c5500] Opening '/cache/transcodes/de9627e3955cb2cab8b6950dda23497b181.mp4' for writing
[hls @ 0x7fff4b4c5500] Opening '/cache/transcodes/de9627e3955cb2cab8b6950dda23497b182.mp4' for writing
[hls @ 0x7fff4b4c5500] Opening '/cache/transcodes/de9627e3955cb2cab8b6950dda23497b183.mp4' for writing
[hls @ 0x7fff4b4c5500] Opening '/cache/transcodes/de9627e3955cb2cab8b6950dda23497b184.mp4' for writing
[hls @ 0x7fff4b4c5500] Opening '/cache/transcodes/de9627e3955cb2cab8b6950dda23497b185.mp4' for writing
[hls @ 0x7fff4b4c5500] Opening '/cache/transcodes/de9627e3955cb2cab8b6950dda23497b186.mp4' for writing
[hls @ 0x7fff4b4c5500] Opening '/cache/transcodes/de9627e3955cb2cab8b6950dda23497b187.mp4' for writing
frame=28256 fps=9416 q=-1.0 size=N/A time=00:17:43.60 bitrate=N/A speed= 354x    
[hls @ 0x7fff4b4c5500] Opening '/cache/transcodes/de9627e3955cb2cab8b6950dda23497b188.mp4' for writing
[hls @ 0x7fff4b4c5500] Opening '/cache/transcodes/de9627e3955cb2cab8b6950dda23497b189.mp4' for writing
[hls @ 0x7fff4b4c5500] Opening '/cache/transcodes/de9627e3955cb2cab8b6950dda23497b190.mp4' for writing
[hls @ 0x7fff4b4c5500] Opening '/cache/transcodes/de9627e3955cb2cab8b6950dda23497b191.mp4' for writing
[hls @ 0x7fff4b4c5500] Opening '/cache/transcodes/de9627e3955cb2cab8b6950dda23497b192.mp4' for writing
[hls @ 0x7fff4b4c5500] Opening '/cache/transcodes/de9627e3955cb2cab8b6950dda23497b193.mp4' for writing
[hls @ 0x7fff4b4c5500] Opening '/cache/transcodes/de9627e3955cb2cab8b6950dda23497b194.mp4' for writing
[hls @ 0x7fff4b4c5500] Opening '/cache/transcodes/de9627e3955cb2cab8b6950dda23497b195.mp4' for writing
[hls @ 0x7fff4b4c5500] Opening '/cache/transcodes/de9627e3955cb2cab8b6950dda23497b196.mp4' for writing
[hls @ 0x7fff4b4c5500] Opening '/cache/transcodes/de9627e3955cb2cab8b6950dda23497b197.mp4' for writing
[hls @ 0x7fff4b4c5500] Opening '/cache/transcodes/de9627e3955cb2cab8b6950dda23497b198.mp4' for writing
[hls @ 0x7fff4b4c5500] Opening '/cache/transcodes/de9627e3955cb2cab8b6950dda23497b199.mp4' for writing
[hls @ 0x7fff4b4c5500] Opening '/cache/transcodes/de9627e3955cb2cab8b6950dda23497b200.mp4' for writing
[hls @ 0x7fff4b4c5500] Opening '/cache/transcodes/de9627e3955cb2cab8b6950dda23497b201.mp4' for writing
[hls @ 0x7fff4b4c5500] Opening '/cache/transcodes/de9627e3955cb2cab8b6950dda23497b202.mp4' for writing
[hls @ 0x7fff4b4c5500] Opening '/cache/transcodes/de9627e3955cb2cab8b6950dda23497b203.mp4' for writing
[hls @ 0x7fff4b4c5500] Opening '/cache/transcodes/de9627e3955cb2cab8b6950dda23497b204.mp4' for writing
[hls @ 0x7fff4b4c5500] Opening '/cache/transcodes/de9627e3955cb2cab8b6950dda23497b205.mp4' for writing
[hls @ 0x7fff4b4c5500] Opening '/cache/transcodes/de9627e3955cb2cab8b6950dda23497b206.mp4' for writing
[hls @ 0x7fff4b4c5500] Opening '/cache/transcodes/de9627e3955cb2cab8b6950dda23497b207.mp4' for writing
[hls @ 0x7fff4b4c5500] Opening '/cache/transcodes/de9627e3955cb2cab8b6950dda23497b208.mp4' for writing
[hls @ 0x7fff4b4c5500] Opening '/cache/transcodes/de9627e3955cb2cab8b6950dda23497b209.mp4' for writing
[hls @ 0x7fff4b4c5500] Opening '/cache/transcodes/de9627e3955cb2cab8b6950dda23497b210.mp4' for writing
[hls @ 0x7fff4b4c5500] Opening '/cache/transcodes/de9627e3955cb2cab8b6950dda23497b211.mp4' for writing
[hls @ 0x7fff4b4c5500] Opening '/cache/transcodes/de9627e3955cb2cab8b6950dda23497b212.mp4' for writing
[hls @ 0x7fff4b4c5500] Opening '/cache/transcodes/de9627e3955cb2cab8b6950dda23497b213.mp4' for writing
[hls @ 0x7fff4b4c5500] Opening '/cache/transcodes/de9627e3955cb2cab8b6950dda23497b214.mp4' for writing
[hls @ 0x7fff4b4c5500] Opening '/cache/transcodes/de9627e3955cb2cab8b6950dda23497b215.mp4' for writing
[hls @ 0x7fff4b4c5500] Opening '/cache/transcodes/de9627e3955cb2cab8b6950dda23497b216.mp4' for writing
[hls @ 0x7fff4b4c5500] Opening '/cache/transcodes/de9627e3955cb2cab8b6950dda23497b217.mp4' for writing
[hls @ 0x7fff4b4c5500] Opening '/cache/transcodes/de9627e3955cb2cab8b6950dda23497b218.mp4' for writing
[hls @ 0x7fff4b4c5500] Opening '/cache/transcodes/de9627e3955cb2cab8b6950dda23497b219.mp4' for writing
[hls @ 0x7fff4b4c5500] Opening '/cache/transcodes/de9627e3955cb2cab8b6950dda23497b220.mp4' for writing
[hls @ 0x7fff4b4c5500] Opening '/cache/transcodes/de9627e3955cb2cab8b6950dda23497b221.mp4' for writing
[hls @ 0x7fff4b4c5500] Opening '/cache/transcodes/de9627e3955cb2cab8b6950dda23497b222.mp4' for writing
[hls @ 0x7fff4b4c5500] Opening '/cache/transcodes/de9627e3955cb2cab8b6950dda23497b223.mp4' for writing
[hls @ 0x7fff4b4c5500] Opening '/cache/transcodes/de9627e3955cb2cab8b6950dda23497b224.mp4' for writing
[hls @ 0x7fff4b4c5500] Opening '/cache/transcodes/de9627e3955cb2cab8b6950dda23497b225.mp4' for writing
[hls @ 0x7fff4b4c5500] Opening '/cache/transcodes/de9627e3955cb2cab8b6950dda23497b226.mp4' for writing
[hls @ 0x7fff4b4c5500] Opening '/cache/transcodes/de9627e3955cb2cab8b6950dda23497b227.mp4' for writing
[hls @ 0x7fff4b4c5500] Opening '/cache/transcodes/de9627e3955cb2cab8b6950dda23497b228.mp4' for writing
[hls @ 0x7fff4b4c5500] Opening '/cache/transcodes/de9627e3955cb2cab8b6950dda23497b229.mp4' for writing
[hls @ 0x7fff4b4c5500] Opening '/cache/transcodes/de9627e3955cb2cab8b6950dda23497b230.mp4' for writing
[hls @ 0x7fff4b4c5500] Opening '/cache/transcodes/de9627e3955cb2cab8b6950dda23497b231.mp4' for writing
[hls @ 0x7fff4b4c5500] Opening '/cache/transcodes/de9627e3955cb2cab8b6950dda23497b232.mp4' for writing
[hls @ 0x7fff4b4c5500] Opening '/cache/transcodes/de9627e3955cb2cab8b6950dda23497b233.mp4' for writing
[hls @ 0x7fff4b4c5500] Opening '/cache/transcodes/de9627e3955cb2cab8b6950dda23497b234.mp4' for writing
[hls @ 0x7fff4b4c5500] Opening '/cache/transcodes/de9627e3955cb2cab8b6950dda23497b235.mp4' for writing
[hls @ 0x7fff4b4c5500] Opening '/cache/transcodes/de9627e3955cb2cab8b6950dda23497b236.mp4' for writing
[hls @ 0x7fff4b4c5500] Opening '/cache/transcodes/de9627e3955cb2cab8b6950dda23497b237.mp4' for writing
[hls @ 0x7fff4b4c5500] Opening '/cache/transcodes/de9627e3955cb2cab8b6950dda23497b238.mp4' for writing
[hls @ 0x7fff4b4c5500] Opening '/cache/transcodes/de9627e3955cb2cab8b6950dda23497b239.mp4' for writing
[hls @ 0x7fff4b4c5500] Opening '/cache/transcodes/de9627e3955cb2cab8b6950dda23497b240.mp4' for writing
[hls @ 0x7fff4b4c5500] Opening '/cache/transcodes/de9627e3955cb2cab8b6950dda23497b241.mp4' for writing
[hls @ 0x7fff4b4c5500] Opening '/cache/transcodes/de9627e3955cb2cab8b6950dda23497b242.mp4' for writing
[hls @ 0x7fff4b4c5500] Opening '/cache/transcodes/de9627e3955cb2cab8b6950dda23497b243.mp4' for writing
[hls @ 0x7fff4b4c5500] Opening '/cache/transcodes/de9627e3955cb2cab8b6950dda23497b244.mp4' for writing
[hls @ 0x7fff4b4c5500] Opening '/cache/transcodes/de9627e3955cb2cab8b6950dda23497b245.mp4' for writing
[hls @ 0x7fff4b4c5500] Opening '/cache/transcodes/de9627e3955cb2cab8b6950dda23497b246.mp4' for writing
[hls @ 0x7fff4b4c5500] Opening '/cache/transcodes/de9627e3955cb2cab8b6950dda23497b247.mp4' for writing
frame=37202 fps=10626 q=-1.0 size=N/A time=00:23:41.53 bitrate=N/A speed= 406x    
[hls @ 0x7fff4b4c5500] Opening '/cache/transcodes/de9627e3955cb2cab8b6950dda23497b248.mp4' for writing
[hls @ 0x7fff4b4c5500] Opening '/cache/transcodes/de9627e3955cb2cab8b6950dda23497b249.mp4' for writing
[hls @ 0x7fff4b4c5500] Opening '/cache/transcodes/de9627e3955cb2cab8b6950dda23497b250.mp4' for writing
[hls @ 0x7fff4b4c5500] Opening '/cache/transcodes/de9627e3955cb2cab8b6950dda23497b251.mp4' for writing
[hls @ 0x7fff4b4c5500] Opening '/cache/transcodes/de9627e3955cb2cab8b6950dda23497b252.mp4' for writing
[hls @ 0x7fff4b4c5500] Opening '/cache/transcodes/de9627e3955cb2cab8b6950dda23497b253.mp4' for writing
[hls @ 0x7fff4b4c5500] Opening '/cache/transcodes/de9627e3955cb2cab8b6950dda23497b254.mp4' for writing
[hls @ 0x7fff4b4c5500] Opening '/cache/transcodes/de9627e3955cb2cab8b6950dda23497b255.mp4' for writing
[hls @ 0x7fff4b4c5500] Opening '/cache/transcodes/de9627e3955cb2cab8b6950dda23497b256.mp4' for writing
[hls @ 0x7fff4b4c5500] Opening '/cache/transcodes/de9627e3955cb2cab8b6950dda23497b257.mp4' for writing
[hls @ 0x7fff4b4c5500] Opening '/cache/transcodes/de9627e3955cb2cab8b6950dda23497b258.mp4' for writing
[hls @ 0x7fff4b4c5500] Opening '/cache/transcodes/de9627e3955cb2cab8b6950dda23497b259.mp4' for writing
[hls @ 0x7fff4b4c5500] Opening '/cache/transcodes/de9627e3955cb2cab8b6950dda23497b260.mp4' for writing
[hls @ 0x7fff4b4c5500] Opening '/cache/transcodes/de9627e3955cb2cab8b6950dda23497b261.mp4' for writing
[hls @ 0x7fff4b4c5500] Opening '/cache/transcodes/de9627e3955cb2cab8b6950dda23497b262.mp4' for writing
[hls @ 0x7fff4b4c5500] Opening '/cache/transcodes/de9627e3955cb2cab8b6950dda23497b263.mp4' for writing
[hls @ 0x7fff4b4c5500] Opening '/cache/transcodes/de9627e3955cb2cab8b6950dda23497b264.mp4' for writing
[hls @ 0x7fff4b4c5500] Opening '/cache/transcodes/de9627e3955cb2cab8b6950dda23497b265.mp4' for writing
[hls @ 0x7fff4b4c5500] Opening '/cache/transcodes/de9627e3955cb2cab8b6950dda23497b266.mp4' for writing
[hls @ 0x7fff4b4c5500] Opening '/cache/transcodes/de9627e3955cb2cab8b6950dda23497b267.mp4' for writing
[hls @ 0x7fff4b4c5500] Opening '/cache/transcodes/de9627e3955cb2cab8b6950dda23497b268.mp4' for writing
[hls @ 0x7fff4b4c5500] Opening '/cache/transcodes/de9627e3955cb2cab8b6950dda23497b269.mp4' for writing
[hls @ 0x7fff4b4c5500] Opening '/cache/transcodes/de9627e3955cb2cab8b6950dda23497b270.mp4' for writing
[hls @ 0x7fff4b4c5500] Opening '/cache/transcodes/de9627e3955cb2cab8b6950dda23497b271.mp4' for writing
[hls @ 0x7fff4b4c5500] Opening '/cache/transcodes/de9627e3955cb2cab8b6950dda23497b272.mp4' for writing
[hls @ 0x7fff4b4c5500] Opening '/cache/transcodes/de9627e3955cb2cab8b6950dda23497b273.mp4' for writing
[hls @ 0x7fff4b4c5500] Opening '/cache/transcodes/de9627e3955cb2cab8b6950dda23497b274.mp4' for writing
[hls @ 0x7fff4b4c5500] Opening '/cache/transcodes/de9627e3955cb2cab8b6950dda23497b275.mp4' for writing
[hls @ 0x7fff4b4c5500] Opening '/cache/transcodes/de9627e3955cb2cab8b6950dda23497b276.mp4' for writing
[hls @ 0x7fff4b4c5500] Opening '/cache/transcodes/de9627e3955cb2cab8b6950dda23497b277.mp4' for writing
[hls @ 0x7fff4b4c5500] Opening '/cache/transcodes/de9627e3955cb2cab8b6950dda23497b278.mp4' for writing
frame=41959 fps=10487 q=-1.0 size=N/A time=00:26:51.82 bitrate=N/A speed= 403x    
[hls @ 0x7fff4b4c5500] Opening '/cache/transcodes/de9627e3955cb2cab8b6950dda23497b279.mp4' for writing
[hls @ 0x7fff4b4c5500] Opening '/cache/transcodes/de9627e3955cb2cab8b6950dda23497b280.mp4' for writing
[hls @ 0x7fff4b4c5500] Opening '/cache/transcodes/de9627e3955cb2cab8b6950dda23497b281.mp4' for writing
[hls @ 0x7fff4b4c5500] Opening '/cache/transcodes/de9627e3955cb2cab8b6950dda23497b282.mp4' for writing
[hls @ 0x7fff4b4c5500] Opening '/cache/transcodes/de9627e3955cb2cab8b6950dda23497b283.mp4' for writing
[hls @ 0x7fff4b4c5500] Opening '/cache/transcodes/de9627e3955cb2cab8b6950dda23497b284.mp4' for writing
[hls @ 0x7fff4b4c5500] Opening '/cache/transcodes/de9627e3955cb2cab8b6950dda23497b285.mp4' for writing
[hls @ 0x7fff4b4c5500] Opening '/cache/transcodes/de9627e3955cb2cab8b6950dda23497b286.mp4' for writing
[hls @ 0x7fff4b4c5500] Opening '/cache/transcodes/de9627e3955cb2cab8b6950dda23497b287.mp4' for writing
[hls @ 0x7fff4b4c5500] Opening '/cache/transcodes/de9627e3955cb2cab8b6950dda23497b288.mp4' for writing
[hls @ 0x7fff4b4c5500] Opening '/cache/transcodes/de9627e3955cb2cab8b6950dda23497b289.mp4' for writing
[hls @ 0x7fff4b4c5500] Opening '/cache/transcodes/de9627e3955cb2cab8b6950dda23497b290.mp4' for writing
[hls @ 0x7fff4b4c5500] Opening '/cache/transcodes/de9627e3955cb2cab8b6950dda23497b291.mp4' for writing
[hls @ 0x7fff4b4c5500] Opening '/cache/transcodes/de9627e3955cb2cab8b6950dda23497b292.mp4' for writing
[hls @ 0x7fff4b4c5500] Opening '/cache/transcodes/de9627e3955cb2cab8b6950dda23497b293.mp4' for writing
[hls @ 0x7fff4b4c5500] Opening '/cache/transcodes/de9627e3955cb2cab8b6950dda23497b294.mp4' for writing
[hls @ 0x7fff4b4c5500] Opening '/cache/transcodes/de9627e3955cb2cab8b6950dda23497b295.mp4' for writing
[hls @ 0x7fff4b4c5500] Opening '/cache/transcodes/de9627e3955cb2cab8b6950dda23497b296.mp4' for writing
[hls @ 0x7fff4b4c5500] Opening '/cache/transcodes/de9627e3955cb2cab8b6950dda23497b297.mp4' for writing
[hls @ 0x7fff4b4c5500] Opening '/cache/transcodes/de9627e3955cb2cab8b6950dda23497b298.mp4' for writing
[hls @ 0x7fff4b4c5500] Opening '/cache/transcodes/de9627e3955cb2cab8b6950dda23497b299.mp4' for writing
[hls @ 0x7fff4b4c5500] Opening '/cache/transcodes/de9627e3955cb2cab8b6950dda23497b300.mp4' for writing
[hls @ 0x7fff4b4c5500] Opening '/cache/transcodes/de9627e3955cb2cab8b6950dda23497b301.mp4' for writing
[hls @ 0x7fff4b4c5500] Opening '/cache/transcodes/de9627e3955cb2cab8b6950dda23497b302.mp4' for writing
[hls @ 0x7fff4b4c5500] Opening '/cache/transcodes/de9627e3955cb2cab8b6950dda23497b303.mp4' for writing
[hls @ 0x7fff4b4c5500] Opening '/cache/transcodes/de9627e3955cb2cab8b6950dda23497b304.mp4' for writing
[hls @ 0x7fff4b4c5500] Opening '/cache/transcodes/de9627e3955cb2cab8b6950dda23497b305.mp4' for writing
[hls @ 0x7fff4b4c5500] Opening '/cache/transcodes/de9627e3955cb2cab8b6950dda23497b306.mp4' for writing
[hls @ 0x7fff4b4c5500] Opening '/cache/transcodes/de9627e3955cb2cab8b6950dda23497b307.mp4' for writing
[hls @ 0x7fff4b4c5500] Opening '/cache/transcodes/de9627e3955cb2cab8b6950dda23497b308.mp4' for writing
[hls @ 0x7fff4b4c5500] Opening '/cache/transcodes/de9627e3955cb2cab8b6950dda23497b309.mp4' for writing
[hls @ 0x7fff4b4c5500] Opening '/cache/transcodes/de9627e3955cb2cab8b6950dda23497b310.mp4' for writing
[hls @ 0x7fff4b4c5500] Opening '/cache/transcodes/de9627e3955cb2cab8b6950dda23497b311.mp4' for writing
[hls @ 0x7fff4b4c5500] Opening '/cache/transcodes/de9627e3955cb2cab8b6950dda23497b312.mp4' for writing
[hls @ 0x7fff4b4c5500] Opening '/cache/transcodes/de9627e3955cb2cab8b6950dda23497b313.mp4' for writing
[hls @ 0x7fff4b4c5500] Opening '/cache/transcodes/de9627e3955cb2cab8b6950dda23497b314.mp4' for writing
[hls @ 0x7fff4b4c5500] Opening '/cache/transcodes/de9627e3955cb2cab8b6950dda23497b315.mp4' for writing
[hls @ 0x7fff4b4c5500] Opening '/cache/transcodes/de9627e3955cb2cab8b6950dda23497b316.mp4' for writing
[hls @ 0x7fff4b4c5500] Opening '/cache/transcodes/de9627e3955cb2cab8b6950dda23497b317.mp4' for writing
[hls @ 0x7fff4b4c5500] Opening '/cache/transcodes/de9627e3955cb2cab8b6950dda23497b318.mp4' for writing
[hls @ 0x7fff4b4c5500] Opening '/cache/transcodes/de9627e3955cb2cab8b6950dda23497b319.mp4' for writing
[hls @ 0x7fff4b4c5500] Opening '/cache/transcodes/de9627e3955cb2cab8b6950dda23497b320.mp4' for writing
frame=48272 fps=10724 q=-1.0 size=N/A time=00:31:04.32 bitrate=N/A speed= 414x    
[hls @ 0x7fff4b4c5500] Opening '/cache/transcodes/de9627e3955cb2cab8b6950dda23497b321.mp4' for writing
[hls @ 0x7fff4b4c5500] Opening '/cache/transcodes/de9627e3955cb2cab8b6950dda23497b322.mp4' for writing
[hls @ 0x7fff4b4c5500] Opening '/cache/transcodes/de9627e3955cb2cab8b6950dda23497b323.mp4' for writing
[hls @ 0x7fff4b4c5500] Opening '/cache/transcodes/de9627e3955cb2cab8b6950dda23497b324.mp4' for writing
[hls @ 0x7fff4b4c5500] Opening '/cache/transcodes/de9627e3955cb2cab8b6950dda23497b325.mp4' for writing
[hls @ 0x7fff4b4c5500] Opening '/cache/transcodes/de9627e3955cb2cab8b6950dda23497b326.mp4' for writing
[hls @ 0x7fff4b4c5500] Opening '/cache/transcodes/de9627e3955cb2cab8b6950dda23497b327.mp4' for writing
[hls @ 0x7fff4b4c5500] Opening '/cache/transcodes/de9627e3955cb2cab8b6950dda23497b328.mp4' for writing
[hls @ 0x7fff4b4c5500] Opening '/cache/transcodes/de9627e3955cb2cab8b6950dda23497b329.mp4' for writing
[hls @ 0x7fff4b4c5500] Opening '/cache/transcodes/de9627e3955cb2cab8b6950dda23497b330.mp4' for writing
[hls @ 0x7fff4b4c5500] Opening '/cache/transcodes/de9627e3955cb2cab8b6950dda23497b331.mp4' for writing
[hls @ 0x7fff4b4c5500] Opening '/cache/transcodes/de9627e3955cb2cab8b6950dda23497b332.mp4' for writing
[hls @ 0x7fff4b4c5500] Opening '/cache/transcodes/de9627e3955cb2cab8b6950dda23497b333.mp4' for writing
[hls @ 0x7fff4b4c5500] Opening '/cache/transcodes/de9627e3955cb2cab8b6950dda23497b334.mp4' for writing
[hls @ 0x7fff4b4c5500] Opening '/cache/transcodes/de9627e3955cb2cab8b6950dda23497b335.mp4' for writing
[hls @ 0x7fff4b4c5500] Opening '/cache/transcodes/de9627e3955cb2cab8b6950dda23497b336.mp4' for writing
[hls @ 0x7fff4b4c5500] Opening '/cache/transcodes/de9627e3955cb2cab8b6950dda23497b337.mp4' for writing
[hls @ 0x7fff4b4c5500] Opening '/cache/transcodes/de9627e3955cb2cab8b6950dda23497b338.mp4' for writing
[hls @ 0x7fff4b4c5500] Opening '/cache/transcodes/de9627e3955cb2cab8b6950dda23497b339.mp4' for writing
[hls @ 0x7fff4b4c5500] Opening '/cache/transcodes/de9627e3955cb2cab8b6950dda23497b340.mp4' for writing
[hls @ 0x7fff4b4c5500] Opening '/cache/transcodes/de9627e3955cb2cab8b6950dda23497b341.mp4' for writing
[hls @ 0x7fff4b4c5500] Opening '/cache/transcodes/de9627e3955cb2cab8b6950dda23497b342.mp4' for writing
[hls @ 0x7fff4b4c5500] Opening '/cache/transcodes/de9627e3955cb2cab8b6950dda23497b343.mp4' for writing
[hls @ 0x7fff4b4c5500] Opening '/cache/transcodes/de9627e3955cb2cab8b6950dda23497b344.mp4' for writing
[hls @ 0x7fff4b4c5500] Opening '/cache/transcodes/de9627e3955cb2cab8b6950dda23497b345.mp4' for writing
[hls @ 0x7fff4b4c5500] Opening '/cache/transcodes/de9627e3955cb2cab8b6950dda23497b346.mp4' for writing
[hls @ 0x7fff4b4c5500] Opening '/cache/transcodes/de9627e3955cb2cab8b6950dda23497b347.mp4' for writing
[hls @ 0x7fff4b4c5500] Opening '/cache/transcodes/de9627e3955cb2cab8b6950dda23497b348.mp4' for writing
[hls @ 0x7fff4b4c5500] Opening '/cache/transcodes/de9627e3955cb2cab8b6950dda23497b349.mp4' for writing
[hls @ 0x7fff4b4c5500] Opening '/cache/transcodes/de9627e3955cb2cab8b6950dda23497b350.mp4' for writing
[hls @ 0x7fff4b4c5500] Opening '/cache/transcodes/de9627e3955cb2cab8b6950dda23497b351.mp4' for writing
[hls @ 0x7fff4b4c5500] Opening '/cache/transcodes/de9627e3955cb2cab8b6950dda23497b352.mp4' for writing
[hls @ 0x7fff4b4c5500] Opening '/cache/transcodes/de9627e3955cb2cab8b6950dda23497b353.mp4' for writing
frame=53113 fps=10620 q=-1.0 size=N/A time=00:34:17.86 bitrate=N/A speed= 411x    
[hls @ 0x7fff4b4c5500] Opening '/cache/transcodes/de9627e3955cb2cab8b6950dda23497b354.mp4' for writing
[hls @ 0x7fff4b4c5500] Opening '/cache/transcodes/de9627e3955cb2cab8b6950dda23497b355.mp4' for writing
[hls @ 0x7fff4b4c5500] Opening '/cache/transcodes/de9627e3955cb2cab8b6950dda23497b356.mp4' for writing
[hls @ 0x7fff4b4c5500] Opening '/cache/transcodes/de9627e3955cb2cab8b6950dda23497b357.mp4' for writing
[hls @ 0x7fff4b4c5500] Opening '/cache/transcodes/de9627e3955cb2cab8b6950dda23497b358.mp4' for writing
[hls @ 0x7fff4b4c5500] Opening '/cache/transcodes/de9627e3955cb2cab8b6950dda23497b359.mp4' for writing
[hls @ 0x7fff4b4c5500] Opening '/cache/transcodes/de9627e3955cb2cab8b6950dda23497b360.mp4' for writing
[hls @ 0x7fff4b4c5500] Opening '/cache/transcodes/de9627e3955cb2cab8b6950dda23497b361.mp4' for writing
[hls @ 0x7fff4b4c5500] Opening '/cache/transcodes/de9627e3955cb2cab8b6950dda23497b362.mp4' for writing
[hls @ 0x7fff4b4c5500] Opening '/cache/transcodes/de9627e3955cb2cab8b6950dda23497b363.mp4' for writing
[hls @ 0x7fff4b4c5500] Opening '/cache/transcodes/de9627e3955cb2cab8b6950dda23497b364.mp4' for writing
[hls @ 0x7fff4b4c5500] Opening '/cache/transcodes/de9627e3955cb2cab8b6950dda23497b365.mp4' for writing
[hls @ 0x7fff4b4c5500] Opening '/cache/transcodes/de9627e3955cb2cab8b6950dda23497b366.mp4' for writing
[hls @ 0x7fff4b4c5500] Opening '/cache/transcodes/de9627e3955cb2cab8b6950dda23497b367.mp4' for writing
[hls @ 0x7fff4b4c5500] Opening '/cache/transcodes/de9627e3955cb2cab8b6950dda23497b368.mp4' for writing
[hls @ 0x7fff4b4c5500] Opening '/cache/transcodes/de9627e3955cb2cab8b6950dda23497b369.mp4' for writing
[hls @ 0x7fff4b4c5500] Opening '/cache/transcodes/de9627e3955cb2cab8b6950dda23497b370.mp4' for writing
[hls @ 0x7fff4b4c5500] Opening '/cache/transcodes/de9627e3955cb2cab8b6950dda23497b371.mp4' for writing
[hls @ 0x7fff4b4c5500] Opening '/cache/transcodes/de9627e3955cb2cab8b6950dda23497b372.mp4' for writing
[hls @ 0x7fff4b4c5500] Opening '/cache/transcodes/de9627e3955cb2cab8b6950dda23497b373.mp4' for writing
[hls @ 0x7fff4b4c5500] Opening '/cache/transcodes/de9627e3955cb2cab8b6950dda23497b374.mp4' for writing
[hls @ 0x7fff4b4c5500] Opening '/cache/transcodes/de9627e3955cb2cab8b6950dda23497b375.mp4' for writing
[hls @ 0x7fff4b4c5500] Opening '/cache/transcodes/de9627e3955cb2cab8b6950dda23497b376.mp4' for writing
[hls @ 0x7fff4b4c5500] Opening '/cache/transcodes/de9627e3955cb2cab8b6950dda23497b377.mp4' for writing
[hls @ 0x7fff4b4c5500] Opening '/cache/transcodes/de9627e3955cb2cab8b6950dda23497b378.mp4' for writing
[hls @ 0x7fff4b4c5500] Opening '/cache/transcodes/de9627e3955cb2cab8b6950dda23497b379.mp4' for writing
[hls @ 0x7fff4b4c5500] Opening '/cache/transcodes/de9627e3955cb2cab8b6950dda23497b380.mp4' for writing
[hls @ 0x7fff4b4c5500] Opening '/cache/transcodes/de9627e3955cb2cab8b6950dda23497b381.mp4' for writing
[hls @ 0x7fff4b4c5500] Opening '/cache/transcodes/de9627e3955cb2cab8b6950dda23497b382.mp4' for writing
[hls @ 0x7fff4b4c5500] Opening '/cache/transcodes/de9627e3955cb2cab8b6950dda23497b383.mp4' for writing
[hls @ 0x7fff4b4c5500] Opening '/cache/transcodes/de9627e3955cb2cab8b6950dda23497b384.mp4' for writing
[hls @ 0x7fff4b4c5500] Opening '/cache/transcodes/de9627e3955cb2cab8b6950dda23497b385.mp4' for writing
[hls @ 0x7fff4b4c5500] Opening '/cache/transcodes/de9627e3955cb2cab8b6950dda23497b386.mp4' for writing
[hls @ 0x7fff4b4c5500] Opening '/cache/transcodes/de9627e3955cb2cab8b6950dda23497b387.mp4' for writing
[hls @ 0x7fff4b4c5500] Opening '/cache/transcodes/de9627e3955cb2cab8b6950dda23497b388.mp4' for writing
[hls @ 0x7fff4b4c5500] Opening '/cache/transcodes/de9627e3955cb2cab8b6950dda23497b389.mp4' for writing
[hls @ 0x7fff4b4c5500] Opening '/cache/transcodes/de9627e3955cb2cab8b6950dda23497b390.mp4' for writing
[hls @ 0x7fff4b4c5500] Opening '/cache/transcodes/de9627e3955cb2cab8b6950dda23497b391.mp4' for writing
[hls @ 0x7fff4b4c5500] Opening '/cache/transcodes/de9627e3955cb2cab8b6950dda23497b392.mp4' for writing
frame=59108 fps=10737 q=-1.0 size=N/A time=00:38:17.77 bitrate=N/A speed= 417x    
[hls @ 0x7fff4b4c5500] Opening '/cache/transcodes/de9627e3955cb2cab8b6950dda23497b393.mp4' for writing
[hls @ 0x7fff4b4c5500] Opening '/cache/transcodes/de9627e3955cb2cab8b6950dda23497b394.mp4' for writing
[hls @ 0x7fff4b4c5500] Opening '/cache/transcodes/de9627e3955cb2cab8b6950dda23497b395.mp4' for writing
[hls @ 0x7fff4b4c5500] Opening '/cache/transcodes/de9627e3955cb2cab8b6950dda23497b396.mp4' for writing
[hls @ 0x7fff4b4c5500] Opening '/cache/transcodes/de9627e3955cb2cab8b6950dda23497b397.mp4' for writing
[hls @ 0x7fff4b4c5500] Opening '/cache/transcodes/de9627e3955cb2cab8b6950dda23497b398.mp4' for writing
[hls @ 0x7fff4b4c5500] Opening '/cache/transcodes/de9627e3955cb2cab8b6950dda23497b399.mp4' for writing
[hls @ 0x7fff4b4c5500] Opening '/cache/transcodes/de9627e3955cb2cab8b6950dda23497b400.mp4' for writing
frame=60151 fps=10017 q=-1.0 size=N/A time=00:38:59.50 bitrate=N/A speed= 390x    
frame=60151 fps=9247 q=-1.0 size=N/A time=00:38:59.50 bitrate=N/A speed= 360x    
frame=60151 fps=8587 q=-1.0 size=N/A time=00:38:59.50 bitrate=N/A speed= 334x    
frame=60151 fps=8014 q=-1.0 size=N/A time=00:38:59.50 bitrate=N/A speed= 312x    
[hls @ 0x7fff4b4c5500] Opening '/cache/transcodes/de9627e3955cb2cab8b6950dda23497b401.mp4' for writing
[hls @ 0x7fff4b4c5500] Opening '/cache/transcodes/de9627e3955cb2cab8b6950dda23497b402.mp4' for writing
[hls @ 0x7fff4b4c5500] Opening '/cache/transcodes/de9627e3955cb2cab8b6950dda23497b403.mp4' for writing
[hls @ 0x7fff4b4c5500] Opening '/cache/transcodes/de9627e3955cb2cab8b6950dda23497b404.mp4' for writing
[hls @ 0x7fff4b4c5500] Opening '/cache/transcodes/de9627e3955cb2cab8b6950dda23497b405.mp4' for writing
[hls @ 0x7fff4b4c5500] Opening '/cache/transcodes/de9627e3955cb2cab8b6950dda23497b406.mp4' for writing
[hls @ 0x7fff4b4c5500] Opening '/cache/transcodes/de9627e3955cb2cab8b6950dda23497b407.mp4' for writing
[hls @ 0x7fff4b4c5500] Opening '/cache/transcodes/de9627e3955cb2cab8b6950dda23497b408.mp4' for writing
[hls @ 0x7fff4b4c5500] Opening '/cache/transcodes/de9627e3955cb2cab8b6950dda23497b409.mp4' for writing
[hls @ 0x7fff4b4c5500] Opening '/cache/transcodes/de9627e3955cb2cab8b6950dda23497b410.mp4' for writing
[hls @ 0x7fff4b4c5500] Opening '/cache/transcodes/de9627e3955cb2cab8b6950dda23497b411.mp4' for writing
[hls @ 0x7fff4b4c5500] Opening '/cache/transcodes/de9627e3955cb2cab8b6950dda23497b412.mp4' for writing
[hls @ 0x7fff4b4c5500] Opening '/cache/transcodes/de9627e3955cb2cab8b6950dda23497b413.mp4' for writing
[hls @ 0x7fff4b4c5500] Opening '/cache/transcodes/de9627e3955cb2cab8b6950dda23497b414.mp4' for writing
[hls @ 0x7fff4b4c5500] Opening '/cache/transcodes/de9627e3955cb2cab8b6950dda23497b415.mp4' for writing
[hls @ 0x7fff4b4c5500] Opening '/cache/transcodes/de9627e3955cb2cab8b6950dda23497b416.mp4' for writing
[hls @ 0x7fff4b4c5500] Opening '/cache/transcodes/de9627e3955cb2cab8b6950dda23497b417.mp4' for writing
[hls @ 0x7fff4b4c5500] Opening '/cache/transcodes/de9627e3955cb2cab8b6950dda23497b418.mp4' for writing
[hls @ 0x7fff4b4c5500] Opening '/cache/transcodes/de9627e3955cb2cab8b6950dda23497b419.mp4' for writing
[hls @ 0x7fff4b4c5500] Opening '/cache/transcodes/de9627e3955cb2cab8b6950dda23497b420.mp4' for writing
[hls @ 0x7fff4b4c5500] Opening '/cache/transcodes/de9627e3955cb2cab8b6950dda23497b421.mp4' for writing
[hls @ 0x7fff4b4c5500] Opening '/cache/transcodes/de9627e3955cb2cab8b6950dda23497b422.mp4' for writing
[hls @ 0x7fff4b4c5500] Opening '/cache/transcodes/de9627e3955cb2cab8b6950dda23497b423.mp4' for writing
[hls @ 0x7fff4b4c5500] Opening '/cache/transcodes/de9627e3955cb2cab8b6950dda23497b424.mp4' for writing
[hls @ 0x7fff4b4c5500] Opening '/cache/transcodes/de9627e3955cb2cab8b6950dda23497b425.mp4' for writing
[hls @ 0x7fff4b4c5500] Opening '/cache/transcodes/de9627e3955cb2cab8b6950dda23497b426.mp4' for writing
[hls @ 0x7fff4b4c5500] Opening '/cache/transcodes/de9627e3955cb2cab8b6950dda23497b427.mp4' for writing
[hls @ 0x7fff4b4c5500] Opening '/cache/transcodes/de9627e3955cb2cab8b6950dda23497b428.mp4' for writing
[hls @ 0x7fff4b4c5500] Opening '/cache/transcodes/de9627e3955cb2cab8b6950dda23497b429.mp4' for writing
[hls @ 0x7fff4b4c5500] Opening '/cache/transcodes/de9627e3955cb2cab8b6950dda23497b430.mp4' for writing
[hls @ 0x7fff4b4c5500] Opening '/cache/transcodes/de9627e3955cb2cab8b6950dda23497b431.mp4' for writing
[hls @ 0x7fff4b4c5500] Opening '/cache/transcodes/de9627e3955cb2cab8b6950dda23497b432.mp4' for writing
[hls @ 0x7fff4b4c5500] Opening '/cache/transcodes/de9627e3955cb2cab8b6950dda23497b433.mp4' for writing
[hls @ 0x7fff4b4c5500] Opening '/cache/transcodes/de9627e3955cb2cab8b6950dda23497b434.mp4' for writing
[hls @ 0x7fff4b4c5500] Opening '/cache/transcodes/de9627e3955cb2cab8b6950dda23497b435.mp4' for writing
[hls @ 0x7fff4b4c5500] Opening '/cache/transcodes/de9627e3955cb2cab8b6950dda23497b436.mp4' for writing
[hls @ 0x7fff4b4c5500] Opening '/cache/transcodes/de9627e3955cb2cab8b6950dda23497b437.mp4' for writing
[hls @ 0x7fff4b4c5500] Opening '/cache/transcodes/de9627e3955cb2cab8b6950dda23497b438.mp4' for writing
[hls @ 0x7fff4b4c5500] Opening '/cache/transcodes/de9627e3955cb2cab8b6950dda23497b439.mp4' for writing
[hls @ 0x7fff4b4c5500] Opening '/cache/transcodes/de9627e3955cb2cab8b6950dda23497b440.mp4' for writing


[q] command received. Exiting.

[hls @ 0x7fff4b4c5500] Opening '/cache/transcodes/de9627e3955cb2cab8b6950dda23497b441.mp4' for writing
[out#0/hls @ 0x7fff4b99d4c0] video:981847KiB audio:103566KiB subtitle:0KiB other streams:0KiB global headers:0KiB muxing overhead: unknown
frame=66281 fps=8274 q=-1.0 Lsize=N/A time=00:43:04.60 bitrate=N/A speed= 323x    